<?xml version="1.0" encoding="UTF-8"?>
<svg height="16px" viewBox="0 0 16 16" width="16px" xmlns="http://www.w3.org/2000/svg">
    <path d="m 7.429688 0.0195312 c -1.917969 0.1367188 -3.726563 0.9648438 -5.085938 2.3242188 c -3.125 3.125 -3.125 8.1875 0 11.3125 s 8.1875 3.125 11.3125 0 s 3.125 -8.1875 0 -11.3125 c -1.640625 -1.640625 -3.914062 -2.488281 -6.226562 -2.3242188 z m -1.484376 3.9531248 c 0.179688 -0.007812 0.363282 0.035156 0.515626 0.132813 l 5.164062 3.222656 c 0.5 0.3125 0.496094 1.039063 -0.007812 1.347656 l -5.21875 3.226563 c -0.570313 0.347656 -1.304688 -0.058594 -1.304688 -0.730469 v -6.308594 c 0 -0.472656 0.375 -0.867187 0.851562 -0.890625 z m 0 0"/>
</svg>
