<?xml version="1.0" encoding="UTF-8"?>
<svg height="128px" viewBox="0 0 128 128" width="128px" xmlns="http://www.w3.org/2000/svg" xmlns:xlink="http://www.w3.org/1999/xlink">
    <linearGradient id="a" gradientUnits="userSpaceOnUse" x1="10" x2="120" y1="116" y2="115.508118">
        <stop offset="0" stop-color="#498fe5"/>
        <stop offset="0.239467" stop-color="#1a5fb4" stop-opacity="0.984314"/>
        <stop offset="0.490909" stop-color="#2579e0" stop-opacity="0.968627"/>
        <stop offset="0.745455" stop-color="#5596e6" stop-opacity="0.956863"/>
        <stop offset="0.914453" stop-color="#134583"/>
        <stop offset="1" stop-color="#2677df"/>
    </linearGradient>
    <linearGradient id="b" gradientTransform="matrix(0.654134 0.654134 -0.654134 0.654134 175.856705 -135.586166)" gradientUnits="userSpaceOnUse" x1="139.477295" x2="25.039328" y1="259.588104" y2="189.370285">
        <stop offset="0" stop-color="#59cde7"/>
        <stop offset="1" stop-color="#1c71d8"/>
    </linearGradient>
    <path d="m 103.246094 109.742188 c -21.675782 21.675781 -56.816406 21.675781 -78.496094 0 c -21.675781 -21.675782 -21.675781 -56.820313 0 -78.496094 c 21.679688 -21.675782 56.820312 -21.675782 78.496094 0 c 21.679687 21.675781 21.679687 56.820312 0 78.496094 z m 0 0" fill="url(#a)"/>
    <path d="m 103.246094 100.484375 c -21.675782 21.675781 -56.816406 21.675781 -78.496094 0 c -21.675781 -21.675781 -21.675781 -56.820313 0 -78.496094 c 21.679688 -21.675781 56.820312 -21.675781 78.496094 0 c 21.679687 21.675781 21.679687 56.820313 0 78.496094 z m 0 0" fill="#99c1f1"/>
    <path d="m 103.246094 99.246094 c -21.675782 21.679687 -56.816406 21.679687 -78.496094 0 c -21.675781 -21.675782 -21.675781 -56.816406 0 -78.496094 c 21.679688 -21.675781 56.820312 -21.675781 78.496094 0 c 21.679687 21.679688 21.679687 56.820312 0 78.496094 z m 0 0" fill="url(#b)"/>
    <path d="m 92.285156 88.285156 c -15.621094 15.621094 -40.949218 15.621094 -56.570312 0 s -15.621094 -40.949218 0 -56.570312 s 40.949218 -15.621094 56.570312 0 s 15.621094 40.949218 0 56.570312 z m 0 0" fill="#ffffff"/>
    <path d="m 55.410156 43.769531 c -1.917968 0.101563 -3.421875 1.683594 -3.421875 3.601563 v 25.4375 c 0.003907 2.699218 2.960938 4.347656 5.257813 2.929687 l 21.054687 -12.992187 c 2.027344 -1.246094 2.035157 -4.191406 0.015625 -5.453125 l -20.8125 -12.984375 c -0.625 -0.386719 -1.355468 -0.578125 -2.09375 -0.539063 z m 0 0" fill="#1a5fb4"/>
</svg>
